{"title":"Julien Duvivier - Le retour de Don Camillo (1953)","uid":6125003,"size":1463669714,"categoryP":"video","categoryS":"movies","magnet":"?xt=urn:btih:b746e8c26868f3b6c96f55555c8a7eb2189b7dfb&amp;dn=Julien+Duvivier+-+Le+retour+de+Don+Camillo+%281953%29&amp;tr=udp%3A%2F%2Ftracker.openbittorrent.com%3A80&amp;tr=udp%3A%2F%2Fopen.demonii.com%3A1337&amp;tr=udp%3A%2F%2Ftracker.coppersurfer.tk%3A6969&amp;tr=udp%3A%2F%2Fexodus.desync.com%3A6969","seeders":1,"leechers":0,"uploader":"mfccorrea","files":4,"time":1295904049,"description":"Retour de Don Camillo (The Return of Don Camillo) is the sequel to the internationally popular French comedy The Little World of Don Camillo. Fernandel returns as the title character, a resourceful, pugnacious Italian village priest. Because of his previous run-ins with communist mayor Peppone (Gino Cervi), Don Camillo is sent to another parish by the Church. Soon, however, all the villagers -- Peppone included -- realize that the priest is indispensable, and they demand his return. In one of the film's funniest moments, an elderly citizen steadfastly refuses to die until Don Camillo administers last rites. Like its predecessor, Retour de Don Camillo is based on a novel by Givoanni Guareschi -- and, also like the earlier film, Retour was a worldwide hit. \n\n   General\n      Complete name : Le retour de Don Camillo .avi\n      Format : AVI\n      Format/Info : Audio Video Interleave\n      File size : 1.36 GiB\n      Duration : 1h 49mn\n      Overall bit rate : 1 780 Kbps\n      Writing application : FairUse Wizard - http://fairusewizard.com\n      Writing library : The best and REALLY easy backup tool\n   Video #0\n      ID : 0\n      Format : MPEG-4 Visual\n      Format profile : AdvancedSimple@L5\n      Format settings, BVOP : Yes\n      Format settings, QPel : No\n      Format settings, GMC : No warppoints\n      Format settings, Matrix : Default (MPEG)\n      Muxing mode : Packed bitstream\n      Codec ID : XVID\n      Codec ID/Hint : XviD\n      Duration : 1h 49mn\n      Bit rate : 1 578 Kbps\n      Width : 640 pixels\n      Height : 464 pixels\n      Display aspect ratio : 1.379\n      Frame rate : 23.976 fps\n      Resolution : 24 bits\n      Colorimetry : 4:2:0\n      Scan type : Progressive\n      Bits/(Pixel*Frame) : 0.222\n      Stream size : 1.21 GiB (89%)\n      Writing library : XviD 1.2.1 (UTC 2008-12-04)\n   Audio #1\n      ID : 1\n      Format : AC-3\n      Format/Info : Audio Coding 3\n      Codec ID : 2000\n      Duration : 1h 49mn\n      Bit rate mode : Constant\n      Bit rate : 192 Kbps\n      Channel(s) : 2 channels\n      Channel positions : L R\n      Sampling rate : 48.0 KHz\n      Stream size : 151 MiB (11%)\n      Alignment : Split accross interleaves\n      Interleave, duration : 42 ms (1.00 video frame)\n      Interleave, preload duration : 500 ms\n &lt;a href=&quot;\nhttp://www.imdb.com/title/tt0045081/&quot; rel=&quot;nofollow&quot; target=&quot;_NEW&quot;&gt;\nhttp://www.imdb.com/title/tt0045081/&lt;/a&gt;\n\nItalian audio; English, Spanish and Portuguese subtitles\n\nMy rip\n\nJulien Duvivier - Le retour de Don Camillo (1953)","torrent":{"xt":"urn:btih:b746e8c26868f3b6c96f55555c8a7eb2189b7dfb","amp;dn":"Julien+Duvivier+-+Le+retour+de+Don+Camillo+%281953%29","amp;tr":["udp%3A%2F%2Ftracker.openbittorrent.com%3A80","udp%3A%2F%2Fopen.demonii.com%3A1337","udp%3A%2F%2Ftracker.coppersurfer.tk%3A6969","udp%3A%2F%2Fexodus.desync.com%3A6969"],"infoHash":"b746e8c26868f3b6c96f55555c8a7eb2189b7dfb","infoHashBuffer":{"type":"Buffer","data":[183,70,232,194,104,104,243,182,201,111,85,85,92,138,126,178,24,155,125,251]},"announce":[],"urlList":[]}}